<svg xmlns="http://www.w3.org/2000/svg" preserveAspectRatio="xMidYMid" width="465.969" height="122.843" viewBox="0 0 465.969 122.843"><defs><style>.cls-1{fill:#47433a;fill-rule:evenodd}</style></defs><path d="M435.445 57.642c2.303.68 5.475 1.511 9.516 2.492 4.795 1.171 8.713 2.569 11.753 4.192 3.039 1.624 5.342 3.54 6.91 5.749 1.566 2.209 2.35 4.729 2.35 7.561 0 4.268-1.039 7.921-3.115 10.96-2.077 3.04-5.145 5.344-9.204 6.911-4.059 1.566-8.997 2.35-14.811 2.35-5.551 0-10.309-.849-14.274-2.549-3.965-1.699-6.891-3.823-8.779-6.372-1.889-2.549-2.832-5.106-2.832-7.675 0-1.699.603-3.152 1.812-4.361 1.208-1.208 2.738-1.812 4.588-1.812 1.623 0 2.869.396 3.738 1.189.869.793 1.7 1.907 2.493 3.342 1.586 2.757 3.483 4.814 5.692 6.174 2.209 1.359 5.22 2.039 9.034 2.039 3.096 0 5.636-.689 7.618-2.068 1.983-1.378 2.974-2.954 2.974-4.729 0-2.719-1.029-4.701-3.087-5.947-2.058-1.246-5.447-2.436-10.167-3.569-5.324-1.321-9.657-2.709-12.999-4.163-3.342-1.453-6.014-3.37-8.015-5.749-2.001-2.379-3.002-5.305-3.002-8.779 0-3.096.925-6.023 2.776-8.779 1.85-2.756 4.578-4.956 8.184-6.599 3.606-1.643 7.958-2.464 13.056-2.464 4.002 0 7.599.416 10.79 1.246 3.191.831 5.853 1.945 7.986 3.342s3.757 2.945 4.872 4.644c1.113 1.7 1.67 3.362 1.67 4.985 0 1.775-.594 3.228-1.784 4.361-1.189 1.133-2.88 1.699-5.069 1.699-1.586 0-2.937-.453-4.05-1.359-1.114-.906-2.389-2.266-3.823-4.078-1.171-1.51-2.549-2.719-4.135-3.625-1.586-.906-3.738-1.359-6.457-1.359-2.795 0-5.117.594-6.967 1.784-1.85 1.189-2.775 2.672-2.775 4.446 0 1.624.68 2.955 2.039 3.993 1.359 1.039 3.19 1.898 5.494 2.577zm-42.31 40.215c-2.304 0-4.173-.812-5.608-2.435-1.435-1.624-2.152-3.946-2.152-6.967V62.683c0-5.097-.708-8.996-2.124-11.696-1.416-2.699-4.239-4.05-8.468-4.05-2.757 0-5.268.822-7.533 2.464-2.266 1.643-3.928 3.899-4.985 6.769-.755 2.303-1.132 6.608-1.132 12.914v19.371c0 3.135-.728 5.485-2.181 7.052-1.454 1.566-3.333 2.35-5.636 2.35-2.228 0-4.059-.812-5.494-2.435-1.435-1.624-2.152-3.946-2.152-6.967v-44.69c0-2.945.641-5.144 1.926-6.598 1.283-1.453 3.039-2.181 5.267-2.181 1.359 0 2.586.321 3.682.963 1.094.642 1.972 1.605 2.634 2.889.66 1.284.991 2.851.991 4.701v1.869c2.718-3.587 5.692-6.221 8.921-7.901 3.228-1.68 6.938-2.521 11.13-2.521 4.078 0 7.721.888 10.931 2.662 3.209 1.775 5.608 4.286 7.194 7.533a17.958 17.958 0 011.982 6.118c.302 2.19.453 4.984.453 8.382v28.774c0 3.096-.708 5.437-2.124 7.023-1.416 1.586-3.257 2.379-5.522 2.379zm-70.065 0c-2.342 0-4.258-.821-5.749-2.464-1.492-1.642-2.237-4.068-2.237-7.278V62.117c0-3.322-.142-5.985-.425-7.986-.283-2.001-1.048-3.682-2.294-5.041-1.246-1.36-3.135-2.039-5.664-2.039-2.039 0-3.975.604-5.806 1.812-1.832 1.209-3.257 2.832-4.276 4.871-1.133 2.606-1.699 7.213-1.699 13.82v20.561c0 3.248-.737 5.683-2.209 7.307-1.473 1.623-3.418 2.435-5.834 2.435-2.342 0-4.239-.812-5.693-2.435-1.454-1.624-2.18-4.059-2.18-7.307V63.476c0-3.888-.133-6.91-.397-9.062-.264-2.153-.982-3.917-2.152-5.296-1.171-1.378-3.022-2.067-5.551-2.067-5.06 0-8.392 1.737-9.997 5.21-1.605 3.475-2.407 8.459-2.407 14.954v20.9c0 3.21-.728 5.636-2.181 7.278-1.454 1.643-3.37 2.464-5.749 2.464-2.342 0-4.258-.821-5.749-2.464-1.492-1.642-2.237-4.068-2.237-7.278V43.879c0-2.908.67-5.117 2.011-6.627 1.339-1.51 3.105-2.266 5.295-2.266 2.115 0 3.88.708 5.296 2.124 1.416 1.416 2.124 3.37 2.124 5.862v1.473c2.681-3.209 5.551-5.569 8.61-7.08 3.058-1.51 6.457-2.266 10.195-2.266 3.889 0 7.231.775 10.025 2.323 2.794 1.548 5.098 3.889 6.911 7.023 2.605-3.172 5.399-5.522 8.382-7.052 2.983-1.529 6.288-2.294 9.913-2.294 4.228 0 7.873.831 10.931 2.493 3.059 1.662 5.343 4.04 6.854 7.136 1.321 2.795 1.982 7.194 1.982 13.198v30.189c0 3.248-.736 5.683-2.209 7.307-1.473 1.623-3.418 2.435-5.834 2.435zm-102.18 0c-2.115 0-3.861-.765-5.239-2.294-1.379-1.529-2.067-3.672-2.067-6.428v-1.983c-1.851 2.342-3.795 4.305-5.834 5.891a21.497 21.497 0 01-6.684 3.54c-2.417.773-5.174 1.161-8.269 1.161-3.739 0-7.09-.775-10.054-2.322-2.965-1.548-5.259-3.682-6.882-6.401-1.926-3.285-2.889-8.005-2.889-14.16V44.218c0-3.095.699-5.409 2.096-6.938 1.397-1.529 3.247-2.294 5.551-2.294 2.341 0 4.229.774 5.664 2.322 1.435 1.549 2.152 3.852 2.152 6.91V68.97c0 3.588.302 6.599.907 9.035.603 2.435 1.689 4.342 3.256 5.72 1.567 1.379 3.691 2.068 6.373 2.068 2.605 0 5.059-.774 7.363-2.323 2.303-1.547 3.983-3.568 5.041-6.06.868-2.19 1.303-6.985 1.303-14.387V44.218c0-3.058.716-5.361 2.152-6.91 1.434-1.548 3.304-2.322 5.607-2.322 2.303 0 4.154.765 5.551 2.294 1.397 1.529 2.096 3.843 2.096 6.938v44.803c0 2.946-.671 5.155-2.011 6.627-1.341 1.473-3.068 2.209-5.183 2.209zm-71.253 25c-2.266 0-4.107-.812-5.523-2.435-1.416-1.623-2.124-3.946-2.124-6.967V9.392c0-3.095.689-5.437 2.067-7.023 1.378-1.586 3.238-2.379 5.58-2.379 2.34 0 4.228.784 5.664 2.351 1.434 1.567 2.152 3.917 2.152 7.051v104.063c0 3.135-.728 5.485-2.181 7.052-1.454 1.566-3.333 2.35-5.635 2.35zm-28.208-33.666c-2.718 2.795-5.966 4.938-9.742 6.429-3.776 1.491-8.024 2.237-12.744 2.237-4.682 0-8.892-.756-12.631-2.265-3.738-1.51-6.976-3.672-9.714-6.486-2.738-2.812-4.814-6.136-6.23-9.969-1.416-3.832-2.124-8.071-2.124-12.715 0-4.682.717-8.968 2.152-12.858 1.435-3.889 3.493-7.212 6.174-9.969 2.681-2.755 5.928-4.88 9.742-6.372 3.814-1.491 8.024-2.237 12.631-2.237 4.682 0 8.93.756 12.744 2.266s7.08 3.663 9.799 6.457c2.719 2.795 4.786 6.117 6.202 9.968 1.416 3.852 2.124 8.1 2.124 12.745 0 4.607-.717 8.855-2.152 12.744-1.436 3.889-3.512 7.231-6.231 10.025zM110.13 51.695c-2.776-3.512-6.505-5.268-11.187-5.268-3.021 0-5.683.785-7.986 2.351-2.304 1.567-4.078 3.88-5.324 6.939-1.246 3.058-1.87 6.626-1.87 10.705 0 4.041.614 7.571 1.841 10.591 1.227 3.022 2.983 5.334 5.268 6.939 2.284 1.605 4.975 2.407 8.071 2.407 4.682 0 8.411-1.765 11.187-5.296 2.775-3.53 4.163-8.411 4.163-14.641 0-6.306-1.388-11.215-4.163-14.727zM19.703 81.007c1.359 1.718 3.002 3.021 4.928 3.908 1.925.887 4.04 1.331 6.343 1.331 3.096 0 5.749-.717 7.958-2.153 2.209-1.434 4.163-3.625 5.863-6.57.943-1.736 1.963-3.096 3.058-4.078 1.095-.981 2.436-1.473 4.022-1.473 1.888 0 3.455.718 4.701 2.153 1.246 1.435 1.869 2.965 1.869 4.588 0 1.925-.576 3.984-1.727 6.173-1.153 2.191-2.909 4.277-5.268 6.259-2.36 1.983-5.334 3.578-8.921 4.786-3.588 1.208-7.628 1.813-12.121 1.813-9.554 0-17.012-2.784-22.373-8.355C2.673 83.82-.008 76.353-.008 66.988c0-6.344 1.227-11.951 3.682-16.822 2.454-4.871 6.004-8.638 10.648-11.3 4.645-2.662 10.195-3.993 16.652-3.993 4.002 0 7.675.586 11.017 1.756 3.342 1.171 6.174 2.681 8.496 4.531 2.322 1.85 4.097 3.823 5.324 5.919 1.227 2.096 1.841 4.05 1.841 5.862 0 1.851-.689 3.418-2.067 4.701-1.379 1.284-3.05 1.926-5.013 1.926-1.284 0-2.351-.33-3.2-.991-.85-.66-1.804-1.728-2.86-3.2-1.889-2.87-3.862-5.022-5.919-6.457-2.059-1.435-4.673-2.153-7.845-2.153-4.569 0-8.251 1.784-11.045 5.353-2.795 3.568-4.191 8.449-4.191 14.641 0 2.909.358 5.58 1.076 8.015.717 2.436 1.756 4.513 3.115 6.231z" class="cls-1"/></svg>